<svg xmlns="http://www.w3.org/2000/svg" viewBox="0 0 326.54 67.37">
	<defs>
		<style>.cls-1{fill:hsl(260, 90%, 20%);}</style>
	</defs>
	<g id="Layer_2" data-name="Layer 2">
		<g id="Layer_1-2" data-name="Layer 1">
			<path class="cls-1" d="M15,31.08,23.09,0H36.92L23.77,31.08Z" />
			<path class="cls-1" d="M31.28,31.08,39.36,0H53.19L40,31.08Z" />
			<path class="cls-1" d="M6.27,67.37C2.45,63.74,0,57.41,0,50.35S2.45,37,6.27,33.34h6.48V34a24.38,24.38,0,0,0,0,32.78v.61Z" />
			<path class="cls-1" d="M42.91,67.37v-.61a24.41,24.41,0,0,0,0-32.78v-.64h6.48c3.81,3.63,6.26,10,6.26,17s-2.45,13.39-6.26,17Z" />
			<path class="cls-1" d="M25.59,47.65c0-2.4,1.45-3.88,3.3-3.88s3.36,1.48,3.36,3.88-1.48,3.84-3.36,3.84S25.59,50,25.59,47.65Zm12,0c0-2.4,1.45-3.88,3.3-3.88s3.36,1.48,3.36,3.88-1.49,3.84-3.36,3.84S37.58,50,37.58,47.65Z" />
			<path class="cls-1" d="M214.61,36.67c5.81,0,8.58,3.22,8.58,7.26A7,7,0,0,1,217.3,51l6.21,10.35h-3.87l-5.88-10.1h-3.9v10.1h-3.22V36.67Zm0,2.66h-4.75v9.35h4.75c3.65,0,5.25-2,5.25-4.75S218.3,39.33,214.61,39.33Z" />
			<path class="cls-1" d="M244.21,55.88H233.43l-2,5.49H228L237,36.81h3.72l8.89,24.56h-3.4Zm-5.39-15.1-4.47,12.47h8.93Z" />
			<path class="cls-1" d="M264.13,61.37h-9.22V36.67h8.86c5.21,0,7.84,2.83,7.84,6.27a5.78,5.78,0,0,1-4.33,5.71,6.16,6.16,0,0,1,4.89,6.09C272.17,58.46,269.23,61.37,264.13,61.37Zm-.64-22h-5.35v8h5.42c3,0,4.75-1.49,4.75-4S266.64,39.33,263.49,39.33ZM263.74,50h-5.6v8.72h5.7c3.19,0,5.11-1.59,5.11-4.29S266.89,50,263.74,50Z" />
			<path class="cls-1" d="M287.27,61.37h-9.21V36.67h8.86c5.21,0,7.83,2.83,7.83,6.27a5.79,5.79,0,0,1-4.32,5.71,6.16,6.16,0,0,1,4.89,6.09C295.32,58.46,292.37,61.37,287.27,61.37Zm-.64-22h-5.35v8h5.42c3,0,4.75-1.49,4.75-4S289.79,39.33,286.63,39.33ZM286.88,50h-5.6v8.72H287c3.19,0,5.1-1.59,5.1-4.29S290,50,286.88,50Z" />
			<path class="cls-1" d="M301.2,36.67h3.23v24.7H301.2Z" />
			<path class="cls-1" d="M309.82,36.67h16.72v2.62h-6.73V61.37h-3.22V39.29h-6.77Z" />
			<path class="cls-1" d="M82.2,61.55c-5.27,0-9.39-2.62-9.56-7.58H79a2.81,2.81,0,0,0,3,2.79c1.75,0,2.86-.87,2.86-2.3,0-4.54-12.25-2.1-12.18-10.79,0-4.65,3.8-7.23,8.94-7.23,5.34,0,8.94,2.65,9.18,7.33H84.37a2.65,2.65,0,0,0-2.83-2.55A2.17,2.17,0,0,0,79,43.46C79,47.72,91.15,45.8,91.15,54,91.15,58.13,87.93,61.55,82.2,61.55Z" />
			<path class="cls-1" d="M106.13,36.51c5.83,0,10.23,3.28,11.63,8.59H111.2A5.41,5.41,0,0,0,106.06,42c-3.67,0-6.18,2.72-6.18,7s2.51,7.06,6.18,7.06a5.42,5.42,0,0,0,5.14-3.15h6.56c-1.4,5.31-5.8,8.56-11.63,8.56C98.9,61.48,93.8,56.34,93.8,49S98.9,36.51,106.13,36.51Z" />
			<path class="cls-1" d="M131.46,36.79c6,0,9,3.45,9,7.72A7.13,7.13,0,0,1,135,51.59l5.65,9.71h-6.74l-5.09-9.25H127.4V61.3h-6V36.79Zm-.35,5H127.4v6.07h3.71c2.23,0,3.28-1.15,3.28-3.07S133.34,41.75,131.11,41.75Z" />
			<path class="cls-1" d="M144.2,36.79h6V61.3h-6Z" />
			<path class="cls-1" d="M165.93,61.3H154.51V36.79h11c5,0,8,2.48,8,6.35a5.56,5.56,0,0,1-4.16,5.59,5.94,5.94,0,0,1,4.72,5.9C174.07,58.68,171.1,61.3,165.93,61.3Zm-1.54-19.73h-3.91v5.14h3.91c2,0,3-.88,3-2.55S166.35,41.57,164.39,41.57Zm.42,9.5h-4.33v5.41h4.4c2,0,3.14-.9,3.14-2.65S166.8,51.07,164.81,51.07Z" />
			<path class="cls-1" d="M192.54,41.57h-9v5h8v4.61h-8v5.38h9V61.3h-15V36.79h15Z" />
		</g>
	</g>
</svg>