<svg viewBox="0 0 196 42" fill="none" xmlns="http://www.w3.org/2000/svg">
<path d="M9.16 18.967L14.09 0H22.529L14.507 18.967H9.16Z" fill="#BFB5FF"/>
<path d="M19.088 18.967L24.018 0H32.457L24.436 18.967H19.088Z" fill="#BFB5FF"/>
<path d="M3.824 41.113C1.5 38.896 0 35.034 0 30.73C0 26.426 1.5 22.562 3.824 20.346H7.779V20.734C5.29399 23.4737 3.91749 27.0402 3.91749 30.739C3.91749 34.4378 5.29399 38.0043 7.779 40.744V41.113H3.824Z" fill="#BFB5FF"/>
<path d="M26.184 41.113V40.744C28.6686 38.0041 30.0448 34.4377 30.0448 30.739C30.0448 27.0403 28.6686 23.4739 26.184 20.734V20.346H30.138C32.466 22.562 33.962 26.424 33.962 30.729C33.962 35.034 32.462 38.895 30.138 41.113H26.184Z" fill="#BFB5FF"/>
<path d="M15.615 29.076C15.5709 28.7834 15.5904 28.4847 15.6723 28.2003C15.7542 27.916 15.8965 27.6526 16.0895 27.4283C16.2825 27.204 16.5217 27.024 16.7907 26.9006C17.0596 26.7772 17.3521 26.7133 17.648 26.7133C17.9439 26.7133 18.2364 26.7772 18.5053 26.9006C18.7743 27.024 19.0135 27.204 19.2065 27.4283C19.3995 27.6526 19.5418 27.916 19.6237 28.2003C19.7056 28.4847 19.7251 28.7834 19.681 29.076C19.723 29.3675 19.7018 29.6646 19.6189 29.9472C19.536 30.2297 19.3933 30.4912 19.2005 30.7138C19.0077 30.9364 18.7693 31.1149 18.5014 31.2373C18.2335 31.3596 17.9425 31.423 17.648 31.423C17.3535 31.423 17.0625 31.3596 16.7946 31.2373C16.5267 31.1149 16.2883 30.9364 16.0955 30.7138C15.9027 30.4912 15.76 30.2297 15.6771 29.9472C15.5942 29.6646 15.573 29.3675 15.615 29.076ZM22.933 29.076C22.8878 28.783 22.9066 28.4836 22.9879 28.1985C23.0693 27.9134 23.2113 27.6493 23.4044 27.4243C23.5974 27.1992 23.8368 27.0186 24.1062 26.8947C24.3755 26.7709 24.6685 26.7068 24.965 26.7068C25.2615 26.7068 25.5545 26.7709 25.8238 26.8947C26.0932 27.0186 26.3326 27.1992 26.5256 27.4243C26.7186 27.6493 26.8607 27.9134 26.9421 28.1985C27.0234 28.4836 27.0422 28.783 26.997 29.076C27.039 29.3673 27.0178 29.6643 26.935 29.9468C26.8521 30.2292 26.7095 30.4905 26.5168 30.713C26.3241 30.9355 26.0858 31.114 25.818 31.2363C25.5503 31.3586 25.2594 31.4219 24.965 31.4219C24.6706 31.4219 24.3797 31.3586 24.112 31.2363C23.8442 31.114 23.6059 30.9355 23.4132 30.713C23.2205 30.4905 23.0779 30.2292 22.995 29.9468C22.9121 29.6643 22.891 29.3673 22.933 29.076Z" fill="#BFB5FF"/>
<path d="M127.394 22.377C130.94 22.377 132.628 24.345 132.628 26.811C132.659 27.8453 132.311 28.8553 131.65 29.6515C130.989 30.4477 130.06 30.9756 129.038 31.136L132.822 37.452H130.464L126.874 31.288H124.494V37.452H122.526V22.377H127.394ZM127.394 23.999H124.494V29.709H127.394C129.621 29.709 130.594 28.498 130.594 26.809C130.594 25.102 129.646 23.999 127.394 23.999Z" fill="#BFB5FF"/>
<path d="M145.457 34.1H138.881L137.67 37.454H135.594L141.045 22.466H143.315L148.744 37.454H146.667L145.457 34.1ZM142.17 24.886L139.445 32.499H144.895L142.17 24.886Z" fill="#BFB5FF"/>
<path d="M157.615 37.452H151.992V22.377H157.399C160.578 22.377 162.179 24.108 162.179 26.205C162.194 26.9975 161.942 27.772 161.463 28.4037C160.985 29.0354 160.307 29.4874 159.54 29.687C160.391 29.8666 161.153 30.3353 161.697 31.0135C162.242 31.6917 162.534 32.5375 162.525 33.407C162.524 35.678 160.729 37.452 157.615 37.452ZM157.226 24H153.959V28.888H157.268C159.107 28.888 160.168 27.98 160.168 26.444C160.167 24.95 159.151 23.999 157.226 23.999V24ZM157.376 30.51H153.959V35.829H157.442C159.388 35.829 160.556 34.856 160.556 33.212C160.556 31.547 159.302 30.509 157.379 30.509L157.376 30.51Z" fill="#BFB5FF"/>
<path d="M171.739 37.452H166.115V22.377H171.522C174.701 22.377 176.302 24.108 176.302 26.205C176.317 26.9975 176.065 27.772 175.586 28.4037C175.108 29.0354 174.43 29.4874 173.663 29.687C174.514 29.8668 175.276 30.3356 175.82 31.0138C176.364 31.692 176.656 32.5376 176.647 33.407C176.647 35.678 174.852 37.452 171.739 37.452ZM171.35 24H168.084V28.888H171.393C173.232 28.888 174.293 27.98 174.293 26.444C174.291 24.95 173.274 23.999 171.349 23.999L171.35 24ZM171.501 30.51H168.084V35.829H171.567C173.512 35.829 174.681 34.856 174.681 33.212C174.679 31.547 173.426 30.509 171.5 30.509L171.501 30.51Z" fill="#BFB5FF"/>
<path d="M180.237 22.377H182.205V37.452H180.237V22.377Z" fill="#BFB5FF"/>
<path d="M185.497 22.377H195.705V23.977H191.595V37.452H189.627V23.978H185.497V22.377Z" fill="#BFB5FF"/>
<path d="M50.167 37.56C46.949 37.56 44.434 35.96 44.327 32.935H48.206C48.2073 33.1711 48.2573 33.4045 48.353 33.6204C48.4486 33.8363 48.5879 34.0301 48.7619 34.1897C48.936 34.3493 49.1411 34.4712 49.3645 34.5478C49.5878 34.6245 49.8246 34.6541 50.06 34.635C51.126 34.635 51.808 34.103 51.808 33.229C51.808 30.458 44.327 31.95 44.37 26.643C44.37 23.809 46.693 22.231 49.826 22.231C53.087 22.231 55.282 23.851 55.431 26.707H51.491C51.4829 26.4905 51.4315 26.2778 51.3397 26.0815C51.248 25.8852 51.1178 25.7093 50.9569 25.5642C50.7959 25.4191 50.6075 25.3078 50.4028 25.2368C50.1981 25.1658 49.9812 25.1367 49.765 25.151C49.571 25.1198 49.3724 25.1322 49.1837 25.1872C48.9951 25.2422 48.821 25.3385 48.6741 25.469C48.5272 25.5996 48.4111 25.7611 48.3343 25.942C48.2575 26.1229 48.2219 26.3186 48.23 26.515C48.23 29.115 55.63 27.942 55.63 32.951C55.622 35.471 53.662 37.56 50.167 37.56Z" fill="#BFB5FF"/>
<path d="M64.768 22.279C66.3757 22.1947 67.9627 22.6715 69.2578 23.6279C70.5528 24.5842 71.4755 25.9607 71.868 27.522H67.862C67.5886 26.9278 67.1449 26.4283 66.587 26.0868C66.0292 25.7453 65.3825 25.5772 64.729 25.604C62.491 25.604 60.956 27.266 60.956 29.909C60.956 32.552 62.49 34.209 64.729 34.209C65.3825 34.2358 66.0292 34.0677 66.587 33.7262C67.1449 33.3847 67.5886 32.8852 67.862 32.291H71.868C71.4741 33.8499 70.5504 35.2232 69.255 36.1757C67.9597 37.1283 66.3734 37.6007 64.768 37.512C63.7625 37.5515 62.7597 37.3813 61.8235 37.0122C60.8873 36.6431 60.0382 36.0831 59.3303 35.368C58.6223 34.6529 58.0709 33.7982 57.7112 32.8584C57.3515 31.9185 57.1914 30.9141 57.241 29.909C57.1903 28.9024 57.3494 27.8962 57.7084 26.9544C58.0673 26.0126 58.6182 25.1557 59.326 24.4382C60.0338 23.7207 60.8832 23.1582 61.82 22.7865C62.7569 22.4148 63.7608 22.2419 64.768 22.279Z" fill="#BFB5FF"/>
<path d="M80.221 22.449C83.887 22.449 85.721 24.559 85.721 27.159C85.7427 28.1511 85.4249 29.1209 84.8203 29.9078C84.2156 30.6947 83.3603 31.2515 82.396 31.486L85.849 37.411H81.736L78.622 31.762H77.749V37.41H74.104V22.449H80.221ZM80.008 25.475H77.749V29.184H80.008C81.372 29.184 82.008 28.484 82.008 27.309C82.012 26.2 81.373 25.475 80.008 25.475Z" fill="#BFB5FF"/>
<path d="M88.002 22.449H91.647V37.411H88.002V22.449Z" fill="#BFB5FF"/>
<path d="M101.259 37.411H94.29V22.449H101.025C104.073 22.449 105.884 23.962 105.884 26.328C105.911 27.0999 105.675 27.8582 105.214 28.478C104.753 29.0978 104.095 29.5422 103.348 29.738C104.17 29.9119 104.907 30.3659 105.431 31.0225C105.956 31.6791 106.237 32.4975 106.225 33.338C106.225 35.812 104.414 37.411 101.259 37.411ZM100.322 25.369H97.935V28.502H100.322C101.516 28.502 102.175 27.969 102.175 26.946C102.175 25.923 101.515 25.369 100.322 25.369ZM100.578 31.169H97.936V34.469H100.621C101.835 34.469 102.538 33.915 102.538 32.849C102.538 31.783 101.792 31.162 100.581 31.162L100.578 31.169Z" fill="#BFB5FF"/>
<path d="M117.502 25.369H111.982V28.395H116.863V31.208H111.982V34.49H117.502V37.41H108.337V22.449H117.502V25.369Z" fill="#BFB5FF"/>
</svg>
