<svg xmlns="http://www.w3.org/2000/svg" viewBox="0 0 397.85 481.2">
	<defs>
		<style>.cls-1{fill:none;stroke:#fff;stroke-miterlimit:10;stroke-width:3px;}</style>
	</defs>
	<g id="Layer_2" data-name="Layer 2">
		<g id="Layer_1-2" data-name="Layer 1">
			<path class="cls-1" d="M290.09,222.08,232.63,1H134.27l93.49,221.08Z" />
			<path class="cls-1" d="M174.36,222.08,116.9,1H18.54L112,222.08Z" />
			<path class="cls-1" d="M352.28,480.2c27.13-25.84,44.57-70.85,44.57-121s-17.44-95.19-44.57-121h-46.1v4.51c27.57,29.08,45,72.36,45,116.51,0,44.37-17.45,87.65-45,116.73v4.3Z" />
			<path class="cls-1" d="M91.66,480.2v-4.3c-27.56-29.08-45-72.36-45-116.73,0-44.15,17.44-87.43,45-116.51v-4.51H45.58C18.45,264,1,309,1,359.17s17.45,95.19,44.58,121Z" />
			<path class="cls-1" d="M214.85,339.91c0-17-10.34-27.57-23.47-27.57-13.36,0-23.91,10.55-23.91,27.57,0,16.8,10.55,27.34,23.91,27.34C204.51,367.25,214.85,356.71,214.85,339.91Zm-85.29,0c0-17-10.33-27.57-23.47-27.57-13.35,0-23.9,10.55-23.9,27.57,0,16.8,10.55,27.34,23.9,27.34C119.23,367.25,129.56,356.71,129.56,339.91Z" />
		</g>
	</g>
</svg>