<svg xmlns="http://www.w3.org/2000/svg" viewBox="0 0 191.54 91.32">
	<defs>
		<style>.cls-1{fill:hsl(260, 90%, 20%);}</style>
	</defs>
	<g id="Layer_2" data-name="Layer 2">
		<g id="Layer_1-2" data-name="Layer 1">
			<path class="cls-1" d="M20.35,42.13,31.3,0H50L32.22,42.13Z" />
			<path class="cls-1" d="M42.4,42.13,53.35,0H72.09L54.28,42.13Z" />
			<path class="cls-1" d="M8.49,91.32C3.32,86.4,0,77.82,0,68.26S3.32,50.12,8.49,45.19h8.79v.86a33.07,33.07,0,0,0,0,44.45v.82Z" />
			<path class="cls-1" d="M58.16,91.32V90.5a33.07,33.07,0,0,0,0-44.45v-.86h8.78c5.17,4.93,8.5,13.5,8.5,23.07s-3.33,18.14-8.5,23.06Z" />
			<path class="cls-1" d="M34.68,64.58c0-3.24,2-5.25,4.48-5.25s4.55,2,4.55,5.25-2,5.22-4.55,5.22S34.68,67.79,34.68,64.58Zm16.26,0c0-3.24,2-5.25,4.47-5.25s4.55,2,4.55,5.25-2,5.22-4.55,5.22S50.94,67.79,50.94,64.58Z" />
			<path class="cls-1" d="M100.85,71.31c4.71,0,7,2.61,7,5.88A5.65,5.65,0,0,1,103,82.94l5,8.38h-3.13l-4.77-8.18H97v8.18H94.39v-20Zm0,2.15H97V81h3.85c3,0,4.25-1.61,4.25-3.85S103.84,73.46,100.85,73.46Z" />
			<path class="cls-1" d="M124.83,86.87H116.1l-1.61,4.45h-2.75L119,71.42h3l7.21,19.9h-2.76Zm-4.36-12.23-3.62,10.1h7.23Z" />
			<path class="cls-1" d="M141,91.32h-7.46v-20h7.18c4.22,0,6.34,2.29,6.34,5.08a4.68,4.68,0,0,1-3.5,4.62,5,5,0,0,1,4,4.94C147.49,89,145.11,91.32,141,91.32Zm-.51-17.86h-4.34V80h4.39c2.44,0,3.85-1.21,3.85-3.25S143,73.46,140.46,73.46Zm.2,8.64h-4.54v7.07h4.62c2.59,0,4.14-1.3,4.14-3.48S143.21,82.1,140.66,82.1Z" />
			<path class="cls-1" d="M159.72,91.32h-7.46v-20h7.18c4.22,0,6.34,2.29,6.34,5.08a4.68,4.68,0,0,1-3.5,4.62,5,5,0,0,1,4,4.94C166.24,89,163.86,91.32,159.72,91.32Zm-.51-17.86h-4.34V80h4.39c2.45,0,3.85-1.21,3.85-3.25S161.76,73.46,159.21,73.46Zm.2,8.64h-4.54v7.07h4.63c2.58,0,4.13-1.3,4.13-3.48S162,82.1,159.41,82.1Z" />
			<path class="cls-1" d="M171,71.31h2.62v20H171Z" />
			<path class="cls-1" d="M178,71.31h13.55v2.12h-5.45V91.32h-2.61V73.43H178Z" />
			<path class="cls-1" d="M102.14,65.54c-4.27,0-7.61-2.12-7.75-6.14h5.15A2.28,2.28,0,0,0,102,61.66c1.42,0,2.32-.71,2.32-1.87,0-3.68-9.93-1.69-9.87-8.74,0-3.76,3.08-5.86,7.24-5.86,4.33,0,7.25,2.15,7.44,5.94H103.9a2.15,2.15,0,0,0-2.29-2.06,1.76,1.76,0,0,0-2,1.81c0,3.45,9.82,1.9,9.82,8.55C109.39,62.76,106.79,65.54,102.14,65.54Z" />
			<path class="cls-1" d="M121.53,45.25c4.73,0,8.29,2.66,9.42,7h-5.32a4.37,4.37,0,0,0-4.16-2.55c-3,0-5,2.21-5,5.72s2,5.71,5,5.71a4.37,4.37,0,0,0,4.16-2.54H131c-1.13,4.3-4.69,6.93-9.42,6.93-5.86,0-10-4.16-10-10.1S115.67,45.25,121.53,45.25Z" />
			<path class="cls-1" d="M142.05,45.48c4.87,0,7.3,2.8,7.3,6.25a5.77,5.77,0,0,1-4.42,5.74l4.59,7.87h-5.46l-4.13-7.5h-1.16v7.5h-4.84V45.48Zm-.28,4h-3v4.93h3c1.81,0,2.66-.94,2.66-2.49S143.58,49.49,141.77,49.49Z" />
			<path class="cls-1" d="M152.38,45.48h4.84V65.34h-4.84Z" />
			<path class="cls-1" d="M170,65.34h-9.25V45.48h8.94c4.05,0,6.45,2,6.45,5.14a4.5,4.5,0,0,1-3.37,4.53,4.82,4.82,0,0,1,3.82,4.78C176.57,63.22,174.17,65.34,170,65.34Zm-1.24-16h-3.17v4.16h3.17c1.58,0,2.46-.71,2.46-2.06S170.32,49.35,168.74,49.35Zm.33,7.7h-3.5v4.38h3.56c1.61,0,2.55-.73,2.55-2.15S170.69,57.05,169.07,57.05Z" />
			<path class="cls-1" d="M191.54,49.35h-7.32v4h6.48v3.74h-6.48v4.35h7.32v3.88H179.38V45.48h12.16Z" />
		</g>
	</g>
</svg>