<svg width="231" height="49" viewBox="0 0 231 49" fill="none" xmlns="http://www.w3.org/2000/svg">
<g clip-path="url(#clip0_293_2315)">
<path d="M10.8779 22.6053L16.7447 0H26.774L17.2378 22.6053H10.8779Z" fill="#240561"/>
<path d="M22.6836 22.6053L28.5431 0H38.5724L29.0072 22.6053H22.6836Z" fill="#240561"/>
<path d="M4.5469 49C1.7767 46.3598 0 41.7558 0 36.6208C0 31.4859 1.7767 26.911 4.5469 24.249H9.24609V24.7291C6.29154 27.9922 4.65467 32.2421 4.65467 36.6499C4.65467 41.0578 6.29154 45.3077 9.24609 48.5708V49.0145L4.5469 49Z" fill="#240561"/>
<path d="M31.1177 49V48.5563C34.0677 45.2909 35.7015 41.0419 35.7015 36.6354C35.7015 32.2289 34.0677 27.9799 31.1177 24.7145V24.249H35.8169C38.5798 26.8892 40.3565 31.5223 40.3565 36.6136C40.3565 41.7049 38.5798 46.3525 35.8169 48.9781L31.1177 49Z" fill="#240561"/>
<path d="M18.5576 34.6572C18.5576 32.9116 19.6091 31.8352 20.9507 31.8352C22.2923 31.8352 23.3873 32.9116 23.3873 34.6572C23.3873 36.4028 22.3141 37.4502 20.9507 37.4502C19.5874 37.4502 18.5576 36.3664 18.5576 34.6572ZM27.2598 34.6572C27.2598 32.9116 28.3113 31.8352 29.6529 31.8352C30.9945 31.8352 32.0895 32.9116 32.0895 34.6572C32.0895 36.4028 31.009 37.4502 29.6529 37.4502C28.2968 37.4502 27.2526 36.3664 27.2526 34.6572H27.2598Z" fill="#240561"/>
<path d="M149.83 26.6711C154.043 26.6711 156.052 29.0131 156.052 31.9515C156.08 33.1816 155.662 34.3802 154.877 35.3255C154.092 36.2708 152.992 36.8989 151.781 37.0937L156.284 44.6216H153.478L149.214 37.2756H146.385V44.6216H144.05V26.6711H149.83ZM149.83 28.6058H146.385V35.4063H149.83C152.477 35.4063 153.637 33.9517 153.637 31.9515C153.637 29.9514 152.506 28.6058 149.83 28.6058Z" fill="#240561"/>
<path d="M171.296 40.6431H163.478L162.028 44.6361H159.541L166.067 26.7729H168.765L175.212 44.6361H172.746L171.296 40.6431ZM167.387 29.6604L164.145 38.7302H170.621L167.387 29.6604Z" fill="#240561"/>
<path d="M185.741 44.6361H179.055V26.6711H185.48C189.259 26.6711 191.166 28.7295 191.166 31.2315C191.184 32.1771 190.885 33.1014 190.315 33.855C189.745 34.6086 188.939 35.1474 188.026 35.3845C189.036 35.598 189.942 36.156 190.588 36.9635C191.235 37.7711 191.582 38.7783 191.572 39.8139C191.572 42.5196 189.44 44.6361 185.741 44.6361ZM185.277 28.6349H181.398V34.4535H185.328C187.504 34.4535 188.773 33.3698 188.773 31.5442C188.773 29.7186 187.562 28.6058 185.277 28.6058V28.6349ZM185.459 36.3664H181.398V42.7087H185.531C187.844 42.7087 189.237 41.5522 189.237 39.5885C189.237 37.6247 187.743 36.3664 185.459 36.3664Z" fill="#240561"/>
<path d="M202.522 44.6361H195.843V26.6711H202.268C206.047 26.6711 207.947 28.7295 207.947 31.2315C207.964 32.1758 207.665 33.0987 207.097 33.8519C206.529 34.6051 205.725 35.1449 204.814 35.3845C205.824 35.598 206.73 36.156 207.376 36.9635C208.023 37.7711 208.37 38.7783 208.36 39.8139C208.36 42.5196 206.221 44.6361 202.522 44.6361ZM202.058 28.6349H198.178V34.4535H202.109C204.284 34.4535 205.553 33.3698 205.553 31.5442C205.553 29.7186 204.35 28.6058 202.058 28.6058V28.6349ZM202.239 36.3664H198.178V42.7087H202.326C204.64 42.7087 206.025 41.5522 206.025 39.5885C206.025 37.6247 204.502 36.3664 202.239 36.3664Z" fill="#240561"/>
<path d="M212.624 26.6711H214.966V44.6361H212.624V26.6711Z" fill="#240561"/>
<path d="M218.875 26.6711H231V28.5767H226.12V44.6361H223.784V28.5767H218.875V26.6711Z" fill="#240561"/>
<path d="M59.61 44.7671C55.7883 44.7671 52.8005 42.8615 52.6772 39.2539H57.2894C57.2908 39.5331 57.3491 39.8091 57.4609 40.0648C57.5727 40.3205 57.7356 40.5505 57.9394 40.7407C58.1433 40.9308 58.3838 41.0771 58.6462 41.1704C58.9086 41.2637 59.1872 41.3021 59.465 41.2832C60.734 41.2832 61.539 40.6504 61.539 39.6103C61.539 36.3083 52.6555 38.0829 52.7063 31.7625C52.7063 28.3804 55.462 26.5039 59.1894 26.5039C63.0619 26.5039 65.6725 28.4313 65.8466 31.8352H61.1837C61.1745 31.5769 61.1137 31.323 61.0048 31.0887C60.8958 30.8545 60.741 30.6446 60.5495 30.4715C60.3581 30.2985 60.1338 30.1658 59.8902 30.0815C59.6466 29.9971 59.3885 29.9628 59.1314 29.9805C58.8991 29.9399 58.6607 29.9522 58.4338 30.0165C58.2069 30.0807 57.9973 30.1953 57.8205 30.3517C57.6436 30.5081 57.5041 30.7023 57.4122 30.9201C57.3203 31.1378 57.2783 31.3735 57.2894 31.6097C57.2894 34.7082 66.1004 33.3117 66.1004 39.2758C66.1004 42.2796 63.7653 44.7671 59.61 44.7671Z" fill="#240561"/>
<path d="M76.964 26.5547C81.1918 26.5547 84.3826 28.9403 85.3979 32.8024H80.6407C80.3107 32.0995 79.7806 31.5103 79.1173 31.109C78.454 30.7078 77.687 30.5125 76.9132 30.5477C74.2518 30.5477 72.4316 32.526 72.4316 35.639C72.4316 38.752 74.2518 40.7739 76.9132 40.7739C77.6909 40.8051 78.4602 40.604 79.1238 40.1961C79.7874 39.7882 80.3153 39.192 80.6407 38.4828H85.3979C84.3826 42.345 81.1918 44.7088 76.964 44.7088C71.7209 44.716 68.0225 40.9776 68.0225 35.639C68.0225 30.3004 71.7209 26.5547 76.964 26.5547Z" fill="#240561"/>
<path d="M95.3325 26.7583C99.6836 26.7583 101.859 29.2676 101.859 32.3733C101.884 33.5558 101.504 34.7112 100.784 35.6478C100.064 36.5844 99.0462 37.246 97.8996 37.5227L101.997 44.5851H97.1092L93.418 37.8573H92.3882V44.5851H88.0371V26.7583H95.3325ZM95.0786 30.3949H92.3882V34.8098H95.0786C96.6958 34.8098 97.4572 33.9734 97.4572 32.5769C97.4572 31.1804 96.6958 30.3658 95.0786 30.3658V30.3949Z" fill="#240561"/>
<path d="M104.571 26.7583H108.922V44.5851H104.571V26.7583Z" fill="#240561"/>
<path d="M120.33 44.5851H112.048V26.7583H120.025C123.651 26.7583 125.827 28.5621 125.827 31.3768C125.861 32.2979 125.581 33.2031 125.032 33.9425C124.484 34.6819 123.7 35.2111 122.81 35.4426C123.788 35.6484 124.665 36.1891 125.289 36.972C125.914 37.7549 126.248 38.7313 126.233 39.7338C126.233 42.6795 124.079 44.5851 120.33 44.5851ZM119.213 30.2349H116.378V33.9734H119.213C120.664 33.9734 121.389 33.3333 121.389 32.1187C121.389 30.9041 120.635 30.2349 119.213 30.2349V30.2349ZM119.518 37.1445H116.378V41.0794H119.569C121.019 41.0794 121.846 40.4248 121.846 39.1519C121.846 37.8791 120.961 37.1445 119.518 37.1445V37.1445Z" fill="#240561"/>
<path d="M139.627 30.2349H133.1V33.8716H138.902V37.2245H133.1V41.1375H139.627V44.5851H128.749V26.7583H139.627V30.2349Z" fill="#240561"/>
</g>
<defs>
<clipPath id="clip0_293_2315">
<rect width="231" height="49" fill="white"/>
</clipPath>
</defs>
</svg>
