<svg width="23" height="20" viewBox="0 0 23 20" fill="none" xmlns="http://www.w3.org/2000/svg">
<path d="M10.1599 6.89L11.0999 10H13.9199L11.6499 11.62L12.5799 14.63L10.1599 12.79L7.73991 14.63L8.66991 11.62L6.39991 10H9.21991L10.1599 6.89ZM7.73991 8H0.159912L6.32991 12.41L3.98991 20L10.1599 15.31L16.3399 20L13.9899 12.41L20.1599 8H12.5799L10.1599 0L7.73991 8ZM20.5199 20L18.6599 13.99L22.8399 11H19.3999L16.3199 13.2L17.7799 17.92L20.5199 20ZM16.1599 6L14.3399 0L13.2999 3.45L14.0699 6H16.1599Z" fill="#302EB9"/>
</svg>
